<svg width="16" height="18" viewBox="0 0 16 18" fill="none" xmlns="http://www.w3.org/2000/svg">
  <path d="M7.87847 8.676C9.06647 8.676 10.0865 8.25 10.9385 7.398C11.7905 6.546 12.2165 5.523 12.2165 4.329C12.2165 3.135 11.7875 2.115 10.9295 1.269C10.0715 0.423 9.04547 0 7.85147 0C6.65747 0 5.64047 0.432001 4.80047 1.296C3.96047 2.16 3.54047 3.18 3.54047 4.356C3.54047 5.532 3.96047 6.546 4.80047 7.398C5.64047 8.25 6.66647 8.676 7.87847 8.676ZM5.55647 2.016C6.19247 1.38 6.96647 1.062 7.87847 1.062C8.79047 1.062 9.56447 1.38 10.2005 2.016C10.8365 2.652 11.1545 3.426 11.1545 4.338C11.1545 5.25 10.8365 6.024 10.2005 6.66C9.56447 7.296 8.79047 7.614 7.87847 7.614C6.96647 7.614 6.19247 7.296 5.55647 6.66C4.92047 6.024 4.60247 5.25 4.60247 4.338C4.60247 3.426 4.92047 2.652 5.55647 2.016ZM15.4565 13.842C15.4445 13.53 15.3965 13.152 15.3125 12.708C15.2405 12.312 15.1475 11.934 15.0335 11.574C14.9195 11.214 14.7665 10.854 14.5745 10.494C14.3465 10.122 14.1065 9.816 13.8545 9.576C13.5905 9.312 13.2545 9.096 12.8465 8.928C12.4625 8.772 12.0245 8.694 11.5325 8.694C11.4365 8.694 11.3375 8.715 11.2355 8.757C11.1335 8.799 10.9985 8.88 10.8305 9L10.0925 9.468C9.82847 9.624 9.51647 9.762 9.15647 9.882C8.73647 10.014 8.34347 10.08 7.97747 10.08C7.61147 10.08 7.23347 10.017 6.84347 9.891C6.45347 9.765 6.13247 9.624 5.88047 9.468C5.58047 9.264 5.34047 9.105 5.16047 8.991C4.98047 8.877 4.83947 8.799 4.73747 8.757C4.63547 8.715 4.53647 8.694 4.44047 8.694C3.96047 8.694 3.52547 8.772 3.13547 8.928C2.74547 9.084 2.41247 9.294 2.13647 9.558C1.86047 9.822 1.62047 10.134 1.41647 10.494C1.21247 10.854 1.05347 11.205 0.939469 11.547C0.825469 11.889 0.729469 12.279 0.651469 12.717C0.573469 13.155 0.528469 13.53 0.516469 13.842C0.492469 14.298 0.480469 14.652 0.480469 14.904C0.480469 15.852 0.780469 16.605 1.38047 17.163C1.98047 17.721 2.73647 18 3.64847 18H12.3245C13.2605 18 14.0225 17.724 14.6105 17.172C15.1985 16.62 15.4925 15.864 15.4925 14.904C15.4925 14.424 15.4805 14.07 15.4565 13.842ZM13.8905 16.398C13.5185 16.758 12.9965 16.938 12.3245 16.938H3.64847C2.97647 16.938 2.45747 16.758 2.09147 16.398C1.72547 16.038 1.54247 15.54 1.54247 14.904C1.54247 14.46 1.55447 14.13 1.57847 13.914C1.60247 13.542 1.64447 13.2 1.70447 12.888C1.75247 12.6 1.83047 12.264 1.93847 11.88C2.07047 11.52 2.20247 11.232 2.33447 11.016C2.47847 10.74 2.64947 10.509 2.84747 10.323C3.04547 10.137 3.27047 9.996 3.52247 9.9C3.77447 9.804 4.05047 9.756 4.35047 9.756C4.38647 9.768 4.45847 9.81 4.56647 9.882L5.30447 10.35C5.64047 10.554 6.04247 10.734 6.51047 10.89C6.97847 11.046 7.47347 11.124 7.99547 11.124C8.51747 11.124 9.01247 11.046 9.48047 10.89C9.98447 10.71 10.3805 10.53 10.6685 10.35L11.4065 9.882C11.4785 9.834 11.5505 9.792 11.6225 9.756C11.9225 9.756 12.2045 9.804 12.4685 9.9C12.7325 9.996 12.9575 10.137 13.1435 10.323C13.3295 10.509 13.5005 10.74 13.6565 11.016C13.8245 11.34 13.9505 11.628 14.0345 11.88C14.1425 12.24 14.2265 12.576 14.2865 12.888C14.3585 13.368 14.4005 13.71 14.4125 13.914C14.4365 14.346 14.4485 14.676 14.4485 14.904C14.4485 15.54 14.2625 16.038 13.8905 16.398Z" fill="#5B8C51"></path>
</svg>