<svg width="16" height="16" viewBox="0 0 16 16" fill="none" xmlns="http://www.w3.org/2000/svg">
<path d="M3.95119 0.152211C3.72319 0.212212 3.53419 0.326212 3.38419 0.494211C3.23419 0.662211 3.14119 0.860211 3.10519 1.08821L3.08719 1.25021H2.42119C2.04919 1.25021 1.77919 1.26521 1.61119 1.29521C1.44319 1.32521 1.26919 1.38821 1.08919 1.48421C0.885187 1.59221 0.702187 1.73921 0.540187 1.92521C0.378187 2.11121 0.261187 2.31221 0.189187 2.52821C0.165187 2.61221 0.147187 2.75021 0.135187 2.94221C0.123187 3.18221 0.117188 3.71621 0.117188 4.54421V12.5902C0.117188 13.4062 0.123187 13.9402 0.135187 14.1922C0.147187 14.3842 0.165187 14.5162 0.189187 14.5882C0.261187 14.8042 0.378187 15.0082 0.540187 15.2002C0.702187 15.3922 0.885187 15.5422 1.08919 15.6502L1.16119 15.6862C1.26919 15.7462 1.37119 15.7822 1.46719 15.7942C1.61119 15.8302 1.86919 15.8512 2.24119 15.8572C2.61319 15.8632 3.22519 15.8662 4.07719 15.8662H13.5812L13.8152 15.7762C14.0912 15.6802 14.3342 15.5242 14.5442 15.3082C14.7542 15.0922 14.9012 14.8522 14.9852 14.5882C15.0092 14.5162 15.0272 14.3842 15.0392 14.1922C15.0512 13.9402 15.0572 13.4062 15.0572 12.5902V4.54421C15.0572 3.71621 15.0512 3.18221 15.0392 2.94221C15.0272 2.75021 15.0092 2.61221 14.9852 2.52821C14.9012 2.26421 14.7542 2.02421 14.5442 1.80821C14.3342 1.59221 14.0912 1.43621 13.8152 1.34021C13.6952 1.31621 13.5872 1.29821 13.4912 1.28621C13.3712 1.27421 13.1552 1.26221 12.8432 1.25021H12.0872L12.0692 1.08821C12.0452 0.980211 12.0002 0.854212 11.9342 0.710212C11.8682 0.566212 11.8052 0.470212 11.7452 0.422212C11.6852 0.374211 11.5832 0.314212 11.4392 0.242211C11.3672 0.194212 11.3072 0.167212 11.2592 0.161212C11.2112 0.155211 11.1152 0.152211 10.9712 0.152211C10.8272 0.152211 10.7282 0.155211 10.6742 0.161212C10.6202 0.167212 10.5572 0.188211 10.4852 0.224212C10.3172 0.308211 10.1762 0.428211 10.0622 0.584211C9.94819 0.740211 9.87919 0.908212 9.85519 1.08821L9.83719 1.25021H5.33719L5.31919 1.08821C5.25919 0.716211 5.06719 0.440211 4.74319 0.260212C4.62319 0.200212 4.48819 0.161212 4.33819 0.143211C4.18819 0.125212 4.05919 0.128212 3.95119 0.152211ZM4.36519 0.926211C4.46119 0.962212 4.52419 1.02821 4.55419 1.12421C4.58419 1.22021 4.59919 1.38221 4.59919 1.61021C4.59919 1.87421 4.58119 2.05421 4.54519 2.15021C4.52119 2.21021 4.47619 2.26121 4.41019 2.30321C4.34419 2.34521 4.27819 2.36621 4.21219 2.36621C4.14619 2.36621 4.08019 2.34521 4.01419 2.30321C3.94819 2.26121 3.90319 2.21021 3.87919 2.15021C3.84319 2.05421 3.82519 1.87421 3.82519 1.61021C3.82519 1.38221 3.84019 1.22021 3.87019 1.12421C3.90019 1.02821 3.95419 0.962212 4.03219 0.926211C4.11019 0.890211 4.16719 0.872211 4.20319 0.872211C4.23919 0.872211 4.29319 0.890211 4.36519 0.926211ZM11.1152 0.926211C11.2112 0.962212 11.2742 1.02821 11.3042 1.12421C11.3342 1.22021 11.3492 1.38221 11.3492 1.61021C11.3492 1.87421 11.3312 2.05421 11.2952 2.15021C11.2712 2.21021 11.2262 2.26121 11.1602 2.30321C11.0942 2.34521 11.0282 2.36621 10.9622 2.36621C10.8962 2.36621 10.8302 2.34521 10.7642 2.30321C10.6982 2.26121 10.6532 2.21021 10.6292 2.15021C10.5932 2.05421 10.5752 1.87421 10.5752 1.61021C10.5752 1.38221 10.5902 1.22021 10.6202 1.12421C10.6502 1.02821 10.7042 0.962212 10.7822 0.926211C10.8602 0.890211 10.9172 0.872211 10.9532 0.872211C10.9892 0.872211 11.0432 0.890211 11.1152 0.926211ZM3.10519 2.15021C3.12919 2.33021 3.19519 2.49821 3.30319 2.65421C3.41119 2.81021 3.55519 2.93021 3.73519 3.01421C3.79519 3.05021 3.85219 3.07121 3.90619 3.07721C3.96019 3.08321 4.06219 3.08621 4.21219 3.08621C4.36219 3.08621 4.46419 3.08321 4.51819 3.07721C4.57219 3.07121 4.63519 3.05021 4.70719 3.01421C4.87519 2.91821 5.01619 2.79521 5.13019 2.64521C5.24419 2.49521 5.30719 2.33021 5.31919 2.15021L5.35519 1.98821H9.81919L9.85519 2.15021C9.87919 2.33021 9.94519 2.49821 10.0532 2.65421C10.1612 2.81021 10.3052 2.93021 10.4852 3.01421C10.5932 3.06221 10.7522 3.08621 10.9622 3.08621C11.1722 3.08621 11.3372 3.06221 11.4572 3.01421C11.6252 2.91821 11.7662 2.79521 11.8802 2.64521C11.9942 2.49521 12.0572 2.33021 12.0692 2.15021L12.1052 1.98821H12.7712C13.2152 2.00021 13.4942 2.03021 13.6082 2.07821C13.7222 2.12621 13.8422 2.20721 13.9682 2.32121C14.0942 2.43521 14.1812 2.54021 14.2292 2.63621C14.2772 2.73221 14.3042 2.82821 14.3102 2.92421C14.3162 3.02021 14.3252 3.27821 14.3372 3.69821V4.61621H0.837187V3.69821C0.849187 3.29021 0.858187 3.03521 0.864187 2.93321C0.870187 2.83121 0.897187 2.74421 0.945187 2.67221C1.01719 2.49221 1.16719 2.31821 1.39519 2.15021C1.49119 2.09021 1.61719 2.04821 1.77319 2.02421C1.92919 2.00021 2.16319 1.98821 2.47519 1.98821H3.06919L3.10519 2.15021ZM14.3372 9.81821L14.3192 14.2822L14.2292 14.4622C14.1812 14.5822 14.0942 14.6992 13.9682 14.8132C13.8422 14.9272 13.7252 15.0022 13.6172 15.0382C13.5092 15.0742 13.1732 15.0982 12.6092 15.1102C11.8772 15.1222 10.2062 15.1282 7.59619 15.1282C4.98619 15.1282 3.30919 15.1222 2.56519 15.1102C2.00119 15.0982 1.66519 15.0742 1.55719 15.0382C1.44919 15.0022 1.33219 14.9272 1.20619 14.8132C1.08019 14.6992 0.993187 14.5822 0.945187 14.4622L0.855187 14.2822L0.837187 9.81821V5.35421H14.3372V9.81821ZM2.79919 6.93821C2.63119 6.99821 2.50519 7.11821 2.42119 7.29821C2.38519 7.35821 2.36419 7.43321 2.35819 7.52321C2.35219 7.61321 2.34919 7.85021 2.34919 8.23421L2.36719 9.00821L2.47519 9.17021C2.53519 9.25421 2.62519 9.33221 2.74519 9.40421C2.81719 9.45221 2.89219 9.47921 2.97019 9.48521C3.04819 9.49121 3.27619 9.49421 3.65419 9.49421C4.03219 9.49421 4.25719 9.49121 4.32919 9.48521C4.40119 9.47921 4.47319 9.45521 4.54519 9.41321C4.61719 9.37121 4.71319 9.29021 4.83319 9.17021L4.94119 9.00821V8.27021C4.95319 7.86221 4.95019 7.59521 4.93219 7.46921C4.91419 7.34321 4.85719 7.22621 4.76119 7.11821C4.66519 7.01021 4.55419 6.94121 4.42819 6.91121C4.30219 6.88121 4.04119 6.87221 3.64519 6.88421H3.05119C2.93119 6.89621 2.84719 6.91421 2.79919 6.93821ZM4.22119 8.18021V8.73821H3.08719V7.60421H4.22119V8.18021ZM6.74119 6.93821C6.58519 6.98621 6.45319 7.10621 6.34519 7.29821C6.32119 7.35821 6.30619 7.43321 6.30019 7.52321C6.29419 7.61321 6.29119 7.85021 6.29119 8.23421L6.30919 9.00821L6.41719 9.17021C6.46519 9.24221 6.54919 9.32021 6.66919 9.40421C6.75319 9.45221 6.83419 9.47921 6.91219 9.48521C6.99019 9.49121 7.21519 9.49421 7.58719 9.49421C7.95919 9.49421 8.18419 9.49121 8.26219 9.48521C8.34019 9.47921 8.42419 9.44921 8.51419 9.39521C8.60419 9.34121 8.68519 9.26621 8.75719 9.17021L8.86519 9.00821L8.88319 8.27021C8.89519 7.86221 8.89219 7.59521 8.87419 7.46921C8.85619 7.34321 8.79919 7.22621 8.70319 7.11821C8.60719 7.01021 8.49619 6.94121 8.37019 6.91121C8.24419 6.88121 7.98319 6.87221 7.58719 6.88421H6.99319C6.86119 6.89621 6.77719 6.91421 6.74119 6.93821ZM8.14519 8.18021V8.73821H7.02919V7.60421H8.14519V8.18021ZM10.6832 6.93821C10.5272 6.98621 10.3952 7.10621 10.2872 7.29821C10.2632 7.37021 10.2452 7.44821 10.2332 7.53221C10.2212 7.65221 10.2212 7.88621 10.2332 8.23421L10.2512 9.00821L10.3412 9.17021C10.4612 9.29021 10.5572 9.37121 10.6292 9.41321C10.7012 9.45521 10.7762 9.47921 10.8542 9.48521C10.9322 9.49121 11.1572 9.49421 11.5292 9.49421C11.9012 9.49421 12.1262 9.49121 12.2042 9.48521C12.2822 9.47921 12.3632 9.45221 12.4472 9.40421C12.5672 9.32021 12.6512 9.24221 12.6992 9.17021L12.8072 9.00821L12.8252 8.27021C12.8252 7.86221 12.8162 7.59521 12.7982 7.46921C12.7802 7.34321 12.7292 7.23221 12.6452 7.13621C12.5372 7.01621 12.4232 6.94121 12.3032 6.91121C12.1832 6.88121 11.9252 6.87221 11.5292 6.88421H10.9172C10.8092 6.89621 10.7312 6.91421 10.6832 6.93821ZM12.0872 8.18021V8.73821H10.9712V7.60421H12.0872V8.18021ZM2.90719 11.0242C2.66719 11.0962 2.49919 11.2402 2.40319 11.4562C2.36719 11.5642 2.34919 11.8522 2.34919 12.3202C2.34919 12.7282 2.36119 12.9892 2.38519 13.1032C2.40919 13.2172 2.47219 13.3192 2.57419 13.4092C2.67619 13.4992 2.78719 13.5562 2.90719 13.5802C3.02719 13.6042 3.28219 13.6162 3.67219 13.6162C4.06219 13.6162 4.31719 13.6042 4.43719 13.5802C4.55719 13.5562 4.66519 13.4902 4.76119 13.3822C4.85719 13.2742 4.91419 13.1572 4.93219 13.0312C4.95019 12.9052 4.95319 12.6382 4.94119 12.2302V11.4922L4.83319 11.3302C4.76119 11.2342 4.67119 11.1562 4.56319 11.0962C4.49119 11.0482 4.41619 11.0212 4.33819 11.0152C4.26019 11.0092 4.04719 11.0062 3.69919 11.0062C3.51919 10.9942 3.35119 10.9912 3.19519 10.9972C3.03919 11.0032 2.94319 11.0122 2.90719 11.0242ZM4.22119 12.3202V12.8782H3.08719V11.7622H4.22119V12.3202ZM6.84919 11.0242C6.60919 11.0962 6.44119 11.2402 6.34519 11.4562C6.32119 11.5042 6.30319 11.5882 6.29119 11.7082V12.3202C6.29119 12.7282 6.30319 12.9892 6.32719 13.1032C6.35119 13.2172 6.41419 13.3222 6.51619 13.4182C6.61819 13.5142 6.72619 13.5712 6.84019 13.5892C6.95419 13.6072 7.20919 13.6162 7.60519 13.6162C8.00119 13.6162 8.25919 13.6042 8.37919 13.5802C8.49919 13.5562 8.60719 13.4902 8.70319 13.3822C8.79919 13.2742 8.85619 13.1572 8.87419 13.0312C8.89219 12.9052 8.89519 12.6382 8.88319 12.2302L8.86519 11.4922L8.75719 11.3302C8.70919 11.2462 8.62519 11.1682 8.50519 11.0962C8.42119 11.0482 8.34319 11.0212 8.27119 11.0152C8.19919 11.0092 7.98919 11.0062 7.64119 11.0062C7.46119 10.9942 7.29319 10.9912 7.13719 10.9972C6.98119 11.0032 6.88519 11.0122 6.84919 11.0242ZM8.14519 12.3202V12.8782H7.02919V11.7622H8.14519V12.3202ZM10.7912 11.0242C10.5512 11.0962 10.3772 11.2402 10.2692 11.4562C10.2572 11.5042 10.2452 11.5882 10.2332 11.7082V12.3202C10.2332 12.7282 10.2452 12.9892 10.2692 13.1032C10.2932 13.2172 10.3532 13.3192 10.4492 13.4092C10.5452 13.4992 10.6532 13.5562 10.7732 13.5802C10.8932 13.6042 11.1512 13.6162 11.5472 13.6162C11.9432 13.6162 12.1982 13.6042 12.3122 13.5802C12.4262 13.5562 12.5372 13.4842 12.6452 13.3642C12.7292 13.2682 12.7802 13.1572 12.7982 13.0312C12.8162 12.9052 12.8252 12.6382 12.8252 12.2302L12.8072 11.4922L12.6992 11.3302C12.6632 11.2702 12.5852 11.1982 12.4652 11.1142L12.4472 11.0962C12.3632 11.0482 12.2822 11.0212 12.2042 11.0152C12.1262 11.0092 11.9192 11.0062 11.5832 11.0062C11.4032 10.9942 11.2352 10.9912 11.0792 10.9972C10.9232 11.0032 10.8272 11.0122 10.7912 11.0242ZM12.0872 12.3202V12.8782H10.9712V11.7622H12.0872V12.3202Z" fill="#5B8C51"></path>
</svg>